<svg id="svg" version="1.1" xmlns="http://www.w3.org/2000/svg" xmlns:xlink="http://www.w3.org/1999/xlink" width="400" height="400" viewBox="0, 0, 400,400"><g id="svgg"><path id="path0" d="M265.800 185.022 C 260.803 187.594,263.920 194.143,269.296 192.368 C 271.590 191.611,272.001 191.048,271.994 188.671 C 271.984 185.179,268.959 183.397,265.800 185.022 M95.056 186.599 C 94.915 186.965,94.800 194.811,94.800 204.033 L 94.800 220.800 101.900 220.787 C 112.682 220.767,116.267 218.995,118.714 212.474 C 120.225 208.447,120.451 196.750,119.056 194.759 C 118.695 194.244,118.400 193.538,118.400 193.192 C 118.400 192.054,115.522 188.621,113.934 187.865 C 110.552 186.254,95.574 185.249,95.056 186.599 M205.756 189.906 C 205.511 190.068,205.187 191.040,205.036 192.067 C 204.734 194.118,204.305 194.653,202.800 194.862 C 201.141 195.091,201.036 200.646,202.683 201.050 C 204.360 201.460,204.387 201.601,204.400 210.000 L 204.412 217.800 205.765 219.400 L 207.118 221.000 210.780 221.141 C 212.794 221.218,215.070 221.163,215.838 221.019 L 217.234 220.757 217.117 217.895 L 217.000 215.033 215.431 214.709 C 212.809 214.166,212.800 214.141,212.800 207.541 L 212.800 201.580 213.826 201.190 C 214.390 200.976,215.357 200.800,215.974 200.800 C 216.959 200.800,217.125 200.618,217.343 199.300 C 217.980 195.447,217.650 194.800,215.047 194.800 C 213.296 194.800,212.800 194.173,212.800 191.963 C 212.800 190.620,212.620 190.016,212.167 189.843 C 211.279 189.502,206.293 189.551,205.756 189.906 M279.448 189.923 C 279.338 190.101,279.122 191.196,278.968 192.357 C 278.814 193.518,278.488 194.528,278.244 194.601 C 278.000 194.674,277.305 194.842,276.700 194.974 C 274.865 195.376,275.031 200.327,276.909 201.200 L 278.200 201.800 278.419 209.800 C 278.716 220.637,278.849 220.878,284.671 221.132 C 286.707 221.221,289.016 221.173,289.803 221.026 L 291.234 220.757 291.117 217.884 L 291.000 215.011 289.425 214.756 C 286.727 214.320,286.400 213.524,286.400 207.405 C 286.400 201.318,286.462 201.192,289.613 200.889 L 291.600 200.698 291.600 197.749 L 291.600 194.800 289.700 194.794 C 287.121 194.786,286.792 194.482,286.522 191.863 L 286.288 189.600 282.968 189.600 C 281.141 189.600,279.557 189.745,279.448 189.923 M130.515 194.495 C 125.465 196.687,124.238 199.218,124.261 207.400 C 124.282 215.274,125.175 217.502,129.400 220.226 C 130.875 221.177,140.398 221.408,140.700 220.500 C 140.792 220.225,141.094 220.000,141.372 220.000 C 141.650 220.000,142.225 219.685,142.649 219.300 C 148.336 214.140,147.281 196.878,141.164 194.998 C 140.634 194.835,139.962 194.511,139.671 194.278 C 138.551 193.380,132.766 193.517,130.515 194.495 M163.323 194.416 C 162.401 194.848,161.535 195.382,161.399 195.601 C 161.007 196.235,158.913 196.071,158.650 195.385 C 158.456 194.881,157.746 194.791,154.707 194.885 L 151.000 195.000 150.894 207.900 L 150.789 220.800 154.994 220.800 L 159.200 220.800 159.206 212.100 C 159.213 203.042,159.246 202.811,160.674 202.060 C 163.962 200.329,164.400 201.488,164.400 211.931 L 164.400 220.800 168.600 220.800 L 172.800 220.800 172.800 209.384 C 172.800 198.855,172.739 197.849,172.020 196.439 C 170.620 193.694,166.771 192.799,163.323 194.416 M184.000 194.050 C 183.230 194.273,181.475 194.643,180.100 194.872 C 177.257 195.345,177.333 195.160,178.262 199.389 C 179.007 202.779,179.717 203.146,182.938 201.800 C 185.084 200.904,187.402 201.021,188.384 202.075 C 190.042 203.855,188.876 205.600,186.029 205.600 C 183.104 205.600,178.887 207.710,177.903 209.666 C 174.073 217.274,181.567 224.832,188.043 219.892 C 189.817 218.540,189.797 218.539,191.461 220.000 C 192.968 221.323,197.794 221.823,198.210 220.700 C 198.959 218.678,199.034 215.201,198.333 214.979 C 196.932 214.534,196.748 213.384,196.876 205.877 C 197.024 197.204,196.687 195.940,193.875 194.604 C 191.954 193.690,186.332 193.375,184.000 194.050 M229.000 193.885 C 228.560 193.991,228.029 194.240,227.820 194.439 C 227.611 194.637,227.187 194.800,226.878 194.800 C 221.553 194.800,218.679 207.958,222.339 215.575 C 224.399 219.861,226.688 221.000,233.240 221.000 C 240.273 221.000,240.800 220.762,240.800 217.594 C 240.800 215.161,239.828 213.532,238.920 214.440 C 237.828 215.532,231.268 215.079,230.200 213.838 C 227.650 210.874,229.104 210.000,236.583 210.000 C 242.828 210.000,242.400 210.372,242.400 204.941 C 242.400 199.756,240.162 194.800,237.821 194.800 C 237.530 194.800,236.776 194.531,236.146 194.202 C 235.045 193.629,230.843 193.442,229.000 193.885 M108.800 194.639 C 110.655 195.198,111.000 196.648,111.000 203.878 L 111.000 210.756 109.605 212.195 C 108.294 213.548,108.078 213.627,106.005 213.517 L 103.800 213.400 103.692 204.200 C 103.564 193.236,103.644 193.085,108.800 194.639 M264.281 195.053 C 264.126 195.207,264.000 201.063,264.000 208.067 L 264.000 220.800 268.006 220.800 L 272.011 220.800 271.906 207.900 L 271.800 195.000 268.181 194.886 C 266.190 194.823,264.435 194.898,264.281 195.053 M137.494 202.042 C 138.023 203.068,138.140 211.813,137.648 213.574 C 137.346 214.655,135.905 215.224,134.263 214.910 C 131.112 214.308,131.235 201.576,134.400 200.783 C 135.772 200.440,136.906 200.901,137.494 202.042 M233.381 201.193 C 234.561 201.641,235.353 203.335,235.015 204.684 C 234.726 205.834,230.095 206.079,229.193 204.992 C 227.544 203.005,230.675 200.164,233.381 201.193 M189.518 212.212 C 189.675 214.895,188.186 216.262,186.073 215.374 C 182.599 213.913,184.373 209.930,188.400 210.146 C 189.310 210.195,189.411 210.381,189.518 212.212 M250.505 214.211 C 248.699 215.476,248.992 220.436,250.902 220.948 C 253.748 221.711,256.585 221.085,257.219 219.554 C 258.955 215.364,254.229 211.603,250.505 214.211 " stroke="none" fill="#216fc5" fill-rule="evenodd"></path><path id="path1" d="M0.000 200.000 L 0.000 400.000 200.000 400.000 L 400.000 400.000 400.000 200.000 L 400.000 0.000 200.000 0.000 L 0.000 0.000 0.000 200.000 M271.211 184.288 C 273.896 186.155,274.540 189.669,272.583 191.781 L 271.565 192.879 272.541 194.158 L 273.516 195.437 273.314 208.218 C 273.140 219.235,273.025 221.069,272.480 221.500 C 271.715 222.105,264.943 222.187,263.426 221.610 L 262.400 221.220 262.400 207.936 C 262.400 194.812,262.411 194.640,263.277 193.718 L 264.155 192.784 263.309 192.191 C 261.288 190.776,261.649 186.262,263.912 184.652 C 265.744 183.349,269.585 183.157,271.211 184.288 M109.400 185.178 C 111.214 185.568,113.510 186.338,114.400 186.856 C 114.730 187.048,115.266 187.329,115.592 187.481 C 121.433 190.199,123.514 205.177,119.323 214.327 C 118.206 216.767,114.716 220.400,113.491 220.400 C 113.036 220.400,112.315 220.715,111.890 221.100 C 110.932 221.967,95.925 222.416,94.440 221.622 C 93.235 220.977,93.100 185.931,94.300 185.232 C 95.151 184.736,107.142 184.694,109.400 185.178 M213.783 189.700 C 213.892 190.195,214.030 191.139,214.090 191.798 C 214.192 192.914,214.344 193.019,216.302 193.329 C 219.031 193.761,219.371 194.383,219.006 198.276 C 218.697 201.568,218.276 202.000,215.374 202.000 L 214.000 202.000 214.000 207.353 C 214.000 213.257,213.963 213.179,216.820 213.195 C 218.478 213.203,218.800 213.891,218.800 217.418 C 218.800 221.883,218.002 222.448,211.600 222.512 C 204.234 222.585,203.140 220.936,202.903 209.400 L 202.755 202.200 201.477 201.600 C 198.716 200.303,199.819 193.200,202.782 193.200 C 203.479 193.200,203.600 192.946,203.600 191.480 C 203.600 188.961,203.929 188.800,209.072 188.800 C 213.427 188.800,213.592 188.832,213.783 189.700 M287.771 189.429 C 288.126 189.783,288.400 190.731,288.400 191.606 C 288.400 193.135,288.420 193.156,290.060 193.277 C 292.632 193.468,293.251 194.605,292.821 198.351 C 292.446 201.612,292.146 201.985,289.889 201.994 L 288.377 202.000 288.489 207.500 L 288.600 213.000 290.400 213.200 L 292.200 213.400 292.314 217.489 C 292.425 221.468,292.403 221.583,291.514 221.765 C 291.011 221.867,290.060 222.079,289.400 222.236 C 286.008 223.039,280.749 222.369,279.317 220.951 C 277.110 218.764,277.008 218.308,276.870 209.925 L 276.741 202.051 275.556 201.790 L 274.371 201.530 274.485 197.867 L 274.600 194.204 276.100 193.499 C 277.036 193.059,277.600 192.516,277.600 192.057 C 277.600 191.651,277.798 190.753,278.039 190.060 L 278.478 188.800 282.811 188.800 C 286.216 188.800,287.277 188.935,287.771 189.429 M141.554 193.814 C 145.326 195.786,146.711 198.152,147.323 203.663 C 148.393 213.304,145.607 220.860,140.636 221.798 C 139.956 221.926,138.647 222.224,137.727 222.460 C 136.806 222.696,135.366 222.792,134.527 222.673 C 130.885 222.157,128.325 221.470,128.127 220.955 C 128.010 220.650,127.709 220.397,127.457 220.393 C 126.414 220.377,124.015 216.942,123.555 214.806 C 123.389 214.033,123.044 212.590,122.789 211.600 C 122.236 209.450,122.489 202.551,123.146 201.894 C 123.396 201.644,123.600 201.032,123.600 200.532 C 123.600 194.532,134.865 190.316,141.554 193.814 M172.030 194.336 C 174.173 196.437,174.401 197.985,174.394 210.355 C 174.386 222.714,174.822 221.765,169.077 221.933 C 162.781 222.117,163.200 222.827,163.200 211.971 L 163.200 203.200 161.800 203.200 L 160.400 203.200 160.400 212.353 L 160.400 221.507 159.500 221.748 C 158.002 222.149,151.201 222.029,150.374 221.586 C 149.421 221.076,149.142 194.618,150.080 193.680 C 150.862 192.898,158.068 193.047,159.511 193.875 C 160.638 194.522,160.744 194.513,162.044 193.682 C 163.170 192.961,163.998 192.812,166.931 192.807 L 170.463 192.800 172.030 194.336 M194.726 193.655 C 198.080 195.585,198.781 198.099,198.492 207.155 L 198.289 213.509 199.392 214.232 C 201.041 215.312,200.748 220.437,198.955 221.872 C 197.179 223.293,191.050 222.551,190.482 220.846 C 190.262 220.187,188.812 220.304,188.544 221.002 C 188.417 221.333,187.608 221.717,186.747 221.855 C 185.887 221.992,185.086 222.261,184.968 222.453 C 183.855 224.253,177.976 221.489,176.417 218.433 C 174.443 214.565,176.333 206.400,179.201 206.400 C 179.422 206.400,180.275 206.040,181.096 205.600 C 181.930 205.153,183.352 204.800,184.320 204.800 C 186.339 204.800,187.600 204.236,187.600 203.334 C 187.600 202.598,180.645 202.905,179.702 203.684 C 178.617 204.579,177.282 203.011,176.999 200.510 C 176.855 199.240,176.555 197.608,176.332 196.885 C 175.886 195.434,176.377 194.421,177.549 194.374 C 177.907 194.359,179.190 194.011,180.400 193.600 C 183.811 192.442,192.678 192.475,194.726 193.655 M238.206 193.638 C 240.344 194.762,242.688 197.348,242.994 198.921 C 243.131 199.624,243.446 201.051,243.695 202.091 C 244.191 204.167,243.584 209.656,242.746 210.665 C 242.412 211.068,240.839 211.200,236.388 211.200 C 230.738 211.200,230.484 211.234,230.677 211.974 C 231.246 214.149,233.677 214.691,237.314 213.452 C 241.040 212.183,241.774 212.694,242.118 216.795 C 242.456 220.828,242.074 221.494,239.246 221.797 C 238.011 221.929,236.250 222.228,235.333 222.461 C 232.855 223.092,226.927 222.201,225.599 220.999 C 225.235 220.670,224.792 220.400,224.614 220.400 C 224.008 220.400,220.800 216.415,220.800 215.662 C 220.800 215.458,220.531 214.776,220.202 214.146 C 219.396 212.600,219.349 202.291,220.141 200.773 C 220.435 200.209,220.792 199.287,220.933 198.726 C 222.130 193.956,232.820 190.807,238.206 193.638 M104.405 203.078 C 104.412 211.899,104.530 212.800,105.685 212.800 C 111.346 212.800,111.948 195.640,106.300 195.278 L 104.400 195.156 104.405 203.078 M134.726 201.871 C 133.252 202.260,133.161 212.797,134.622 213.865 C 135.294 214.357,135.461 214.316,136.082 213.510 C 137.457 211.723,136.891 200.724,135.471 201.646 C 135.432 201.672,135.097 201.773,134.726 201.871 M230.814 202.774 C 229.998 204.299,230.291 204.800,232.000 204.800 C 233.185 204.800,233.600 204.638,233.600 204.174 C 233.600 203.086,232.801 202.000,232.000 202.000 C 231.575 202.000,231.042 202.348,230.814 202.774 M185.992 212.015 C 185.356 213.203,185.875 214.474,186.934 214.323 C 188.184 214.145,188.471 211.200,187.238 211.200 C 186.793 211.200,186.232 211.567,185.992 212.015 M256.866 213.016 C 259.148 213.946,259.861 219.125,257.951 220.895 C 254.081 224.482,247.600 222.323,247.600 217.448 C 247.600 213.381,252.273 211.146,256.866 213.016 " stroke="none" fill="#fbfbfc" fill-rule="evenodd"></path><path id="path2" d="M263.895 184.664 C 263.073 185.249,262.421 186.014,262.446 186.364 C 262.485 186.896,262.520 186.902,262.659 186.400 C 263.393 183.753,269.470 183.097,271.787 185.413 C 273.199 186.825,273.843 189.955,272.848 190.570 C 272.655 190.690,272.392 191.195,272.264 191.694 C 272.038 192.575,272.053 192.572,272.807 191.600 C 276.568 186.748,269.117 180.949,263.895 184.664 M94.300 185.209 C 93.142 185.921,93.229 220.974,94.391 221.595 C 94.889 221.862,97.886 221.974,102.491 221.899 L 109.800 221.781 102.380 221.690 C 97.250 221.628,94.812 221.452,94.480 221.120 C 93.790 220.430,93.790 186.370,94.480 185.680 C 94.814 185.346,96.855 185.205,101.180 185.217 C 106.810 185.233,108.418 185.384,111.600 186.192 C 112.501 186.421,112.482 186.376,111.400 185.736 C 109.951 184.880,95.556 184.436,94.300 185.209 M114.400 187.100 C 117.120 189.078,119.076 191.705,120.132 194.800 C 120.289 195.261,120.344 195.235,120.368 194.687 C 120.439 193.091,116.800 187.600,115.672 187.600 C 115.466 187.600,115.074 187.330,114.800 187.000 C 114.526 186.670,114.107 186.400,113.870 186.400 C 113.632 186.400,113.871 186.715,114.400 187.100 M262.168 189.175 C 262.268 190.858,262.502 191.515,263.207 192.086 L 264.117 192.823 263.253 193.743 C 262.197 194.867,262.061 221.225,263.110 221.437 C 263.390 221.494,263.435 221.449,263.210 221.337 C 262.942 221.204,262.800 216.557,262.800 207.958 L 262.800 194.783 263.800 194.327 C 264.700 193.917,265.240 192.419,264.500 192.387 C 263.535 192.346,262.685 191.039,262.379 189.126 L 262.040 187.000 262.168 189.175 M204.080 189.280 C 203.816 189.544,203.600 190.534,203.600 191.480 C 203.600 192.946,203.479 193.200,202.782 193.200 C 200.508 193.200,198.666 199.591,200.500 201.119 C 200.895 201.447,200.972 200.863,200.869 198.346 C 200.726 194.863,201.077 194.000,202.641 194.000 C 203.616 194.000,203.862 193.492,204.090 191.009 C 204.164 190.206,204.525 189.655,205.200 189.315 C 206.094 188.865,206.113 188.811,205.380 188.806 C 204.929 188.803,204.344 189.016,204.080 189.280 M212.400 189.156 C 213.188 189.373,213.423 189.724,213.508 190.816 C 213.743 193.832,213.863 194.000,215.779 194.000 C 218.430 194.000,218.958 194.735,218.628 197.959 C 218.481 199.392,218.145 200.827,217.880 201.148 C 217.494 201.616,217.517 201.692,218.000 201.534 C 218.411 201.400,218.713 200.430,218.957 198.454 C 219.448 194.491,219.076 193.768,216.324 193.333 C 214.343 193.019,214.193 192.916,214.090 191.798 C 213.852 189.194,213.638 188.798,212.492 188.840 L 211.400 188.880 212.400 189.156 M278.039 190.060 C 277.798 190.753,277.600 191.651,277.600 192.057 C 277.600 192.512,277.037 193.063,276.129 193.497 C 275.320 193.884,274.571 194.467,274.465 194.793 C 274.319 195.241,274.441 195.217,274.964 194.693 C 275.345 194.312,275.982 194.000,276.380 194.000 C 277.402 194.000,277.982 193.152,278.322 191.159 C 278.556 189.785,278.819 189.376,279.608 189.156 L 280.600 188.880 279.539 188.840 C 278.693 188.808,278.389 189.055,278.039 190.060 M286.700 189.212 C 287.400 189.494,287.600 189.895,287.600 191.013 C 287.600 193.249,288.187 194.000,289.934 194.000 C 292.033 194.000,292.392 194.538,292.455 197.780 L 292.509 200.600 292.825 198.000 C 293.233 194.633,292.547 193.461,290.060 193.277 C 288.420 193.156,288.400 193.135,288.400 191.606 C 288.400 189.955,287.587 188.783,286.471 188.825 C 285.991 188.843,286.056 188.954,286.700 189.212 M270.800 193.200 C 270.800 193.640,270.967 194.000,271.171 194.000 C 272.698 194.000,272.800 194.877,272.800 207.980 C 272.800 222.790,273.265 221.519,267.778 221.701 L 263.800 221.833 267.824 221.916 C 273.579 222.036,273.076 223.289,273.314 208.246 L 273.515 195.492 272.458 193.961 C 271.269 192.240,270.800 192.025,270.800 193.200 M129.400 193.600 C 128.029 194.508,128.492 194.662,130.000 193.800 C 131.504 192.940,139.293 192.980,140.627 193.854 C 141.176 194.214,141.726 194.407,141.850 194.284 C 143.349 192.785,131.605 192.140,129.400 193.600 M162.200 193.600 C 161.540 194.037,161.180 194.390,161.400 194.385 C 161.620 194.379,162.149 194.110,162.576 193.787 C 165.088 191.887,171.195 193.284,173.045 196.182 C 173.997 197.673,174.487 219.931,173.592 221.010 C 173.306 221.355,173.271 221.600,173.508 221.600 C 174.294 221.600,174.400 220.245,174.400 210.222 C 174.400 197.985,174.168 196.432,172.030 194.336 L 170.463 192.800 166.931 192.803 C 164.080 192.805,163.169 192.958,162.200 193.600 M180.400 193.600 C 179.190 194.011,178.582 194.359,179.050 194.374 C 179.517 194.388,180.665 194.130,181.600 193.800 C 184.230 192.872,193.036 192.965,194.508 193.936 C 197.703 196.043,197.978 197.051,197.990 206.709 L 198.000 214.017 199.041 214.492 C 200.027 214.941,200.074 215.097,199.926 217.424 C 199.666 221.517,199.002 222.138,195.131 221.914 C 192.190 221.743,192.043 221.770,193.218 222.265 C 195.218 223.105,197.619 222.941,198.955 221.872 C 200.748 220.437,201.041 215.312,199.392 214.232 L 198.289 213.509 198.492 207.155 C 198.781 198.099,198.080 195.585,194.726 193.655 C 192.678 192.475,183.811 192.442,180.400 193.600 M226.194 193.652 C 223.274 195.213,220.798 197.750,220.801 199.178 C 220.802 199.520,221.181 199.170,221.643 198.400 C 224.045 194.400,226.514 193.200,232.344 193.200 C 235.174 193.200,236.889 193.375,237.411 193.718 C 238.522 194.448,240.682 195.341,240.200 194.872 C 237.881 192.612,229.503 191.883,226.194 193.652 M150.080 193.680 C 149.726 194.034,149.600 197.695,149.600 207.666 C 149.600 223.540,149.022 222.097,155.300 221.898 L 159.400 221.769 155.180 221.684 C 152.538 221.632,150.781 221.421,150.480 221.120 C 149.853 220.493,149.792 195.537,150.414 194.374 C 150.964 193.347,157.971 193.202,158.800 194.200 C 159.074 194.530,159.681 194.799,160.149 194.799 C 160.865 194.797,160.792 194.670,159.690 193.999 C 158.139 193.053,150.946 192.814,150.080 193.680 M126.172 195.700 C 124.679 197.337,123.588 199.303,123.640 200.262 C 123.676 200.928,123.705 200.922,123.941 200.200 C 124.508 198.467,125.733 196.549,126.937 195.511 C 127.632 194.912,128.010 194.417,127.778 194.411 C 127.547 194.405,126.824 194.985,126.172 195.700 M143.757 195.837 C 144.570 196.627,145.531 198.011,145.892 198.914 C 146.253 199.816,146.616 200.352,146.699 200.104 C 147.028 199.115,143.702 194.400,142.674 194.400 C 142.456 194.400,142.943 195.046,143.757 195.837 M176.413 194.985 C 176.059 195.411,176.037 195.925,176.332 196.885 C 176.555 197.608,176.855 199.240,176.999 200.510 C 177.284 203.029,178.691 204.669,179.701 203.659 C 180.046 203.314,179.955 203.200,179.329 203.200 C 177.702 203.200,175.829 195.660,177.234 194.770 C 177.551 194.570,177.601 194.410,177.349 194.406 C 177.101 194.403,176.680 194.663,176.413 194.985 M105.505 195.083 C 106.002 195.179,106.722 195.175,107.105 195.075 C 107.487 194.975,107.080 194.896,106.200 194.901 C 105.320 194.905,105.007 194.987,105.505 195.083 M108.950 196.900 C 110.906 200.812,110.142 210.747,107.789 212.006 C 107.246 212.297,106.885 212.619,106.988 212.721 C 107.407 213.141,109.305 211.447,109.833 210.182 C 111.252 206.786,110.149 195.200,108.406 195.200 C 108.238 195.200,108.483 195.965,108.950 196.900 M120.690 197.200 C 121.077 199.541,121.083 206.049,120.699 208.600 L 120.399 210.600 120.969 209.200 C 121.755 207.271,121.752 198.720,120.965 196.800 L 120.392 195.400 120.690 197.200 M240.726 195.946 C 241.377 196.358,242.390 198.202,242.845 199.800 C 243.160 200.910,243.173 200.887,243.018 199.496 C 242.838 197.890,241.455 195.596,240.673 195.606 C 240.350 195.610,240.367 195.718,240.726 195.946 M219.990 201.026 C 219.776 201.590,219.621 202.625,219.646 203.326 L 219.692 204.600 219.977 203.200 C 220.133 202.430,220.395 201.395,220.558 200.900 C 220.968 199.653,220.470 199.764,219.990 201.026 M146.901 202.200 C 146.905 203.080,146.987 203.393,147.083 202.895 C 147.179 202.398,147.175 201.678,147.075 201.295 C 146.975 200.913,146.896 201.320,146.901 202.200 M291.816 201.173 C 291.671 201.408,290.948 201.600,290.209 201.600 C 287.577 201.600,287.600 201.550,287.600 207.394 C 287.600 213.307,287.665 213.463,290.205 213.670 L 291.800 213.800 291.800 217.594 L 291.800 221.389 289.600 221.725 C 279.417 223.282,277.554 221.457,277.220 209.605 C 277.011 202.185,276.961 201.805,276.200 201.728 C 275.635 201.670,275.597 201.705,276.070 201.847 C 276.662 202.024,276.756 202.971,276.870 209.924 C 277.008 218.308,277.110 218.764,279.317 220.951 C 280.749 222.369,286.008 223.039,289.400 222.236 C 290.060 222.079,291.011 221.867,291.514 221.765 C 292.403 221.583,292.425 221.468,292.314 217.489 L 292.200 213.400 290.400 213.200 L 288.600 213.000 288.489 207.500 L 288.377 202.000 289.889 201.994 C 291.435 201.988,292.773 201.440,292.328 200.995 C 292.192 200.859,291.961 200.939,291.816 201.173 M243.274 205.000 C 243.288 208.165,243.361 208.666,243.623 207.400 C 244.048 205.343,244.038 202.819,243.600 201.800 C 243.379 201.286,243.263 202.430,243.274 205.000 M122.947 202.200 C 122.383 203.501,122.520 212.076,123.119 213.000 C 123.578 213.707,123.612 213.615,123.409 212.200 C 122.791 207.876,122.728 205.429,123.199 204.002 C 123.752 202.328,123.541 200.827,122.947 202.200 M133.754 202.177 C 133.632 202.494,133.617 203.079,133.720 203.477 C 133.846 203.963,133.922 203.849,133.954 203.129 C 133.982 202.472,134.271 201.988,134.700 201.876 C 135.356 201.704,135.355 201.690,134.687 201.646 C 134.296 201.621,133.875 201.859,133.754 202.177 M202.100 201.876 C 202.733 202.041,202.801 202.735,202.806 209.129 C 202.809 213.018,202.987 216.470,203.200 216.800 C 203.458 217.199,203.590 214.834,203.594 209.743 C 203.600 201.766,203.539 201.480,201.867 201.646 C 201.610 201.672,201.715 201.775,202.100 201.876 M213.867 201.867 C 213.720 202.013,213.600 204.523,213.600 207.443 C 213.600 213.288,213.578 213.235,216.200 213.586 L 217.800 213.800 217.902 217.200 C 218.038 221.715,218.157 221.605,212.822 221.887 C 209.731 222.050,208.529 222.241,208.986 222.496 C 209.637 222.860,212.607 222.723,215.800 222.180 C 218.434 221.733,218.800 221.152,218.800 217.418 C 218.800 213.891,218.478 213.203,216.820 213.195 C 213.964 213.179,214.000 213.254,214.000 207.376 L 214.000 202.046 215.700 201.893 L 217.400 201.740 215.767 201.670 C 214.868 201.631,214.013 201.720,213.867 201.867 M230.893 201.934 C 230.323 202.296,229.495 204.800,229.945 204.800 C 230.104 204.800,230.407 204.215,230.617 203.500 C 230.917 202.482,231.217 202.200,232.000 202.200 C 232.783 202.200,233.083 202.482,233.383 203.500 C 233.797 204.906,234.400 205.248,234.400 204.075 C 234.400 202.452,232.196 201.107,230.893 201.934 M185.126 202.207 C 185.013 202.321,183.858 202.577,182.560 202.777 C 180.550 203.086,180.748 203.107,183.900 202.918 C 187.707 202.690,188.840 203.238,186.900 204.368 C 186.261 204.740,186.259 204.777,186.873 204.788 C 187.895 204.806,188.256 203.176,187.373 202.530 C 186.637 201.993,185.504 201.829,185.126 202.207 M160.194 203.300 C 159.876 204.175,159.787 221.601,160.100 221.600 C 160.265 221.600,160.400 217.460,160.400 212.400 L 160.400 203.200 161.800 203.200 L 163.200 203.200 163.206 211.900 C 163.209 216.685,163.344 220.808,163.506 221.063 C 163.813 221.548,163.712 204.172,163.403 203.300 C 163.305 203.025,162.584 202.800,161.800 202.800 C 161.016 202.800,160.293 203.025,160.194 203.300 M136.953 207.800 C 136.953 210.440,137.018 211.468,137.097 210.084 C 137.175 208.701,137.174 206.541,137.095 205.284 C 137.016 204.028,136.952 205.160,136.953 207.800 M147.344 207.600 C 147.344 209.690,147.412 210.545,147.494 209.500 C 147.576 208.455,147.576 206.745,147.494 205.700 C 147.412 204.655,147.344 205.510,147.344 207.600 M133.344 208.000 C 133.344 210.090,133.412 210.945,133.494 209.900 C 133.576 208.855,133.576 207.145,133.494 206.100 C 133.412 205.055,133.344 205.910,133.344 208.000 M181.289 205.465 C 180.568 205.820,180.057 206.190,180.154 206.288 C 180.252 206.385,180.752 206.232,181.266 205.948 C 181.780 205.663,183.100 205.314,184.200 205.172 L 186.200 204.913 184.400 204.865 C 183.410 204.839,182.010 205.109,181.289 205.465 M231.300 205.076 C 231.685 205.176,232.315 205.176,232.700 205.076 C 233.085 204.975,232.770 204.893,232.000 204.893 C 231.230 204.893,230.915 204.975,231.300 205.076 M177.885 207.318 C 175.870 209.803,175.605 210.545,175.603 213.716 C 175.598 219.386,178.660 222.800,183.752 222.800 C 185.956 222.800,185.011 222.094,182.542 221.896 C 175.856 221.360,173.232 211.494,178.643 207.238 C 179.229 206.777,179.459 206.408,179.154 206.418 C 178.849 206.429,178.278 206.834,177.885 207.318 M242.710 209.899 C 242.489 210.747,242.273 210.782,236.540 210.901 L 230.600 211.023 236.451 211.112 C 242.452 211.202,243.578 210.934,243.108 209.524 C 243.016 209.247,242.837 209.416,242.710 209.899 M219.649 211.600 C 219.625 212.370,219.874 213.516,220.202 214.146 C 220.531 214.776,220.800 215.458,220.800 215.662 C 220.800 216.415,224.008 220.400,224.614 220.400 C 224.792 220.400,225.267 220.699,225.671 221.064 C 226.075 221.430,226.505 221.629,226.627 221.507 C 226.748 221.385,226.080 220.769,225.140 220.138 C 222.565 218.409,220.721 215.218,219.857 211.000 C 219.767 210.560,219.673 210.830,219.649 211.600 M187.300 211.076 C 187.792 211.204,188.000 211.659,188.000 212.609 C 188.000 213.474,187.748 214.107,187.300 214.368 C 186.915 214.592,186.815 214.781,187.077 214.788 C 187.746 214.805,188.800 213.193,188.800 212.154 C 188.800 211.318,188.046 210.749,187.067 210.846 C 186.810 210.872,186.915 210.975,187.300 211.076 M120.046 211.489 C 119.837 213.701,115.809 219.210,113.809 220.021 C 113.188 220.273,113.153 220.355,113.659 220.375 C 115.393 220.441,120.731 213.376,120.263 211.634 C 120.169 211.285,120.072 211.220,120.046 211.489 M230.000 211.444 C 230.000 212.487,231.807 214.388,232.800 214.388 C 233.130 214.388,232.954 214.162,232.408 213.886 C 231.862 213.610,231.214 212.980,230.967 212.485 C 230.421 211.389,230.000 210.936,230.000 211.444 M146.800 212.792 C 146.800 218.014,142.744 221.546,136.345 221.899 C 133.969 222.030,132.560 222.255,132.873 222.454 C 133.579 222.901,136.403 222.889,137.840 222.431 C 138.478 222.228,139.639 221.956,140.420 221.828 C 142.108 221.550,145.168 218.875,146.173 216.800 C 146.872 215.357,147.510 211.600,147.056 211.600 C 146.915 211.600,146.800 212.136,146.800 212.792 M133.728 212.997 C 133.779 213.848,134.031 214.233,134.600 214.333 C 135.330 214.460,135.342 214.425,134.734 213.936 C 134.367 213.641,133.975 213.040,133.862 212.600 C 133.742 212.134,133.686 212.299,133.728 212.997 M252.705 212.683 C 253.202 212.779,253.922 212.775,254.305 212.675 C 254.687 212.575,254.280 212.496,253.400 212.501 C 252.520 212.505,252.207 212.587,252.705 212.683 M136.005 213.591 C 135.659 214.236,135.694 214.339,136.191 214.148 C 136.526 214.020,136.800 213.664,136.800 213.357 C 136.800 212.576,136.501 212.664,136.005 213.591 M237.800 213.266 C 237.140 213.485,236.060 213.825,235.400 214.021 L 234.200 214.378 235.400 214.244 C 236.060 214.171,237.456 213.868,238.502 213.572 C 241.131 212.827,241.536 213.299,241.685 217.282 C 241.785 219.974,241.699 220.440,241.000 220.969 C 240.356 221.457,240.324 221.577,240.836 221.587 C 241.913 221.609,242.377 219.876,242.118 216.795 C 241.791 212.895,240.963 212.218,237.800 213.266 M248.787 214.014 C 247.136 215.703,247.071 218.891,248.652 220.638 L 249.704 221.800 248.852 220.353 C 247.195 217.538,248.316 213.583,250.914 213.081 L 251.800 212.909 250.887 212.854 C 250.345 212.822,249.490 213.294,248.787 214.014 M255.850 213.076 C 258.411 213.578,259.597 217.578,257.985 220.273 C 257.085 221.778,257.085 221.787,257.944 220.908 C 260.274 218.525,258.777 212.676,255.884 212.854 C 255.015 212.908,255.015 212.912,255.850 213.076 M123.654 214.753 C 123.576 216.133,126.327 220.371,127.316 220.393 C 127.489 220.397,127.245 219.995,126.773 219.500 C 125.499 218.165,124.098 215.863,123.891 214.766 L 123.709 213.800 123.654 214.753 M203.625 218.540 C 203.588 219.623,206.130 222.009,207.260 221.954 C 208.078 221.913,208.096 221.882,207.400 221.715 C 206.408 221.476,204.431 219.673,203.984 218.600 C 203.679 217.868,203.649 217.863,203.625 218.540 M189.600 220.290 C 189.930 220.415,190.344 220.761,190.520 221.059 C 190.696 221.356,191.039 221.600,191.282 221.600 C 191.525 221.600,191.398 221.240,191.000 220.800 C 190.602 220.360,189.989 220.014,189.638 220.032 C 189.095 220.058,189.090 220.097,189.600 220.290 M111.024 221.013 C 110.402 221.483,110.372 221.600,110.875 221.600 C 111.220 221.600,111.726 221.330,112.000 221.000 C 112.634 220.237,112.039 220.244,111.024 221.013 M128.000 220.809 C 128.000 221.038,128.278 221.332,128.617 221.462 C 129.555 221.822,129.666 221.433,128.782 220.881 C 128.287 220.572,128.000 220.546,128.000 220.809 M166.515 221.896 C 167.788 221.976,169.768 221.975,170.915 221.894 C 172.062 221.814,171.020 221.749,168.600 221.750 C 166.180 221.751,165.242 221.816,166.515 221.896 M228.650 222.153 C 230.653 222.609,234.367 222.605,237.400 222.143 C 239.399 221.839,238.738 221.780,233.450 221.789 C 228.857 221.797,227.529 221.898,228.650 222.153 M251.303 222.300 C 252.734 222.902,253.773 222.894,255.494 222.270 C 256.666 221.844,256.473 221.800,253.451 221.800 C 250.413 221.800,250.220 221.845,251.303 222.300 " stroke="none" fill="#c4d4ec" fill-rule="evenodd"></path><path id="path3" d="M94.480 185.680 C 93.601 186.559,93.811 220.554,94.700 221.251 C 95.322 221.739,95.344 221.728,94.896 221.154 C 94.504 220.652,94.415 216.637,94.496 203.154 L 94.600 185.800 101.400 185.585 L 108.200 185.371 101.580 185.285 C 96.864 185.225,94.822 185.338,94.480 185.680 M108.833 185.744 C 108.925 185.823,109.540 186.008,110.200 186.156 C 111.076 186.352,111.238 186.315,110.800 186.018 C 110.260 185.653,108.432 185.398,108.833 185.744 M113.200 186.939 C 113.750 187.229,114.285 187.396,114.388 187.311 C 114.670 187.080,113.490 186.412,112.800 186.412 C 112.469 186.412,112.649 186.648,113.200 186.939 M272.600 188.600 C 272.600 189.768,272.735 190.640,272.900 190.538 C 273.065 190.436,273.200 189.564,273.200 188.600 C 273.200 187.636,273.065 186.764,272.900 186.662 C 272.735 186.560,272.600 187.432,272.600 188.600 M262.514 188.600 C 262.517 189.700,262.595 190.103,262.687 189.495 C 262.779 188.886,262.777 187.986,262.682 187.495 C 262.587 187.003,262.511 187.500,262.514 188.600 M207.300 189.091 C 208.125 189.178,209.475 189.178,210.300 189.091 C 211.125 189.005,210.450 188.934,208.800 188.934 C 207.150 188.934,206.475 189.005,207.300 189.091 M281.700 189.091 C 282.525 189.178,283.875 189.178,284.700 189.091 C 285.525 189.005,284.850 188.934,283.200 188.934 C 281.550 188.934,280.875 189.005,281.700 189.091 M204.422 189.774 C 204.160 190.089,204.019 190.944,204.109 191.674 L 204.272 193.000 204.336 191.520 C 204.377 190.583,204.657 189.890,205.100 189.632 C 205.485 189.408,205.597 189.219,205.349 189.212 C 205.101 189.205,204.684 189.458,204.422 189.774 M286.790 189.463 C 287.016 189.575,287.200 190.332,287.200 191.144 C 287.200 193.310,288.119 194.400,289.943 194.400 C 290.766 194.400,291.692 194.625,292.001 194.900 C 292.478 195.325,292.482 195.296,292.032 194.700 C 291.690 194.248,290.961 194.000,289.975 194.000 C 288.203 194.000,287.897 193.641,287.610 191.232 C 287.495 190.260,287.171 189.418,286.890 189.362 C 286.610 189.306,286.565 189.351,286.790 189.463 M118.255 191.400 C 119.180 192.979,119.200 193.003,119.200 192.511 C 119.200 192.279,118.829 191.664,118.376 191.144 L 117.553 190.200 118.255 191.400 M277.786 192.897 C 277.574 193.369,276.875 193.893,276.234 194.061 C 273.722 194.718,273.487 201.677,275.980 201.575 C 276.360 201.559,276.252 201.409,275.700 201.188 C 274.888 200.861,274.800 200.554,274.800 198.062 C 274.800 195.124,275.035 194.693,276.873 194.254 C 277.464 194.113,278.065 193.625,278.210 193.169 C 278.569 192.036,278.263 191.839,277.786 192.897 M264.800 193.074 C 264.800 193.537,264.380 194.063,263.800 194.327 L 262.800 194.783 262.800 207.991 C 262.800 215.256,262.875 221.200,262.967 221.200 C 263.059 221.200,263.464 221.304,263.867 221.430 C 264.552 221.645,264.554 221.631,263.900 221.210 C 263.257 220.797,263.200 219.706,263.200 207.823 C 263.200 192.902,262.645 194.416,268.133 194.368 C 270.150 194.351,271.575 194.246,271.300 194.135 C 271.025 194.024,270.800 193.560,270.800 193.105 C 270.800 192.327,270.755 192.317,270.069 192.938 C 269.655 193.312,268.669 193.600,267.800 193.600 C 266.931 193.600,265.945 193.312,265.531 192.938 C 264.846 192.318,264.800 192.326,264.800 193.074 M139.000 193.485 C 139.440 193.591,139.971 193.840,140.180 194.039 C 140.389 194.237,140.738 194.400,140.956 194.400 C 141.175 194.400,141.004 194.136,140.576 193.813 C 140.149 193.490,139.440 193.241,139.000 193.259 L 138.200 193.293 139.000 193.485 M162.576 193.822 C 161.812 194.434,161.813 194.438,162.600 194.076 C 163.040 193.874,163.670 193.608,164.000 193.486 C 164.518 193.293,164.515 193.259,163.976 193.232 C 163.634 193.214,163.004 193.480,162.576 193.822 M192.869 193.591 C 193.456 193.769,194.176 194.037,194.469 194.187 C 194.761 194.337,194.651 194.176,194.224 193.830 C 193.796 193.483,193.076 193.215,192.624 193.234 C 191.963 193.262,192.011 193.333,192.869 193.591 M203.600 193.533 C 203.600 193.790,203.172 194.000,202.649 194.000 C 202.126 194.000,201.460 194.315,201.168 194.700 C 200.718 195.296,200.722 195.325,201.199 194.900 C 201.508 194.625,202.163 194.400,202.656 194.400 C 203.567 194.400,204.277 193.744,203.840 193.307 C 203.708 193.175,203.600 193.277,203.600 193.533 M213.632 193.513 C 213.593 194.133,214.021 194.281,216.554 194.525 C 217.758 194.642,218.295 194.579,217.954 194.363 C 217.649 194.170,216.650 194.009,215.733 194.006 C 214.779 194.003,213.980 193.786,213.865 193.500 C 213.707 193.108,213.656 193.111,213.632 193.513 M226.976 193.830 C 226.549 194.176,226.439 194.337,226.731 194.187 C 227.024 194.037,227.744 193.769,228.331 193.591 C 229.189 193.333,229.237 193.262,228.576 193.234 C 228.124 193.215,227.404 193.483,226.976 193.830 M150.414 194.374 C 149.609 195.878,149.872 220.605,150.700 221.232 C 151.296 221.682,151.325 221.678,150.900 221.201 C 150.374 220.611,150.135 195.956,150.643 194.633 C 150.988 193.734,158.058 193.705,158.800 194.600 C 159.371 195.288,160.329 195.365,161.200 194.794 C 161.633 194.511,161.459 194.466,160.578 194.635 C 159.727 194.798,159.195 194.676,158.829 194.234 C 157.973 193.204,150.978 193.320,150.414 194.374 M126.678 195.754 C 125.865 196.499,125.206 197.264,125.213 197.454 C 125.220 197.644,125.476 197.469,125.782 197.065 C 126.089 196.661,126.928 195.896,127.647 195.365 C 128.367 194.834,128.776 194.400,128.556 194.400 C 128.336 194.400,127.491 195.009,126.678 195.754 M142.636 195.270 C 143.309 195.748,144.252 196.691,144.730 197.364 C 145.209 198.038,145.600 198.387,145.600 198.141 C 145.600 197.895,144.859 196.953,143.953 196.047 C 143.047 195.141,142.105 194.400,141.859 194.400 C 141.613 194.400,141.962 194.791,142.636 195.270 M172.516 196.124 C 173.002 197.072,173.460 197.702,173.533 197.525 C 173.662 197.211,172.088 194.400,171.783 194.400 C 171.700 194.400,172.029 195.176,172.516 196.124 M177.300 194.665 C 177.013 194.781,176.822 195.490,176.853 196.333 L 176.905 197.800 177.153 196.417 C 177.337 195.388,177.656 194.963,178.400 194.757 C 179.170 194.543,179.216 194.478,178.600 194.471 C 178.160 194.467,177.575 194.554,177.300 194.665 M272.316 207.477 C 272.406 217.627,272.319 220.625,271.916 221.140 C 271.455 221.729,271.475 221.741,272.100 221.251 C 272.839 220.672,273.207 196.060,272.494 194.937 C 272.332 194.683,272.252 200.326,272.316 207.477 M104.179 195.310 C 104.072 195.590,104.032 199.685,104.092 204.410 L 104.200 213.000 105.916 213.124 C 107.810 213.260,110.417 211.286,110.384 209.740 C 110.374 209.253,110.183 209.427,109.825 210.249 C 109.097 211.922,107.745 212.800,105.896 212.800 L 104.371 212.800 104.485 203.800 C 104.598 194.965,104.573 194.283,104.179 195.310 M223.555 195.900 C 222.281 197.308,221.456 198.400,221.666 198.400 C 221.757 198.400,222.508 197.590,223.335 196.600 C 224.987 194.624,225.135 194.153,223.555 195.900 M218.509 196.800 C 218.509 197.790,218.587 198.195,218.682 197.700 C 218.778 197.205,218.778 196.395,218.682 195.900 C 218.587 195.405,218.509 195.810,218.509 196.800 M120.596 203.083 C 120.594 206.118,120.708 208.060,120.849 207.400 C 121.185 205.828,121.193 199.656,120.860 198.483 C 120.717 197.979,120.598 200.049,120.596 203.083 M241.924 198.200 C 242.126 198.640,242.392 199.270,242.514 199.600 C 242.707 200.118,242.741 200.115,242.768 199.576 C 242.786 199.234,242.520 198.604,242.178 198.176 C 241.566 197.412,241.562 197.413,241.924 198.200 M292.064 199.280 C 292.023 200.217,291.743 200.910,291.300 201.168 C 290.915 201.392,290.803 201.581,291.051 201.588 C 291.880 201.610,292.456 200.466,292.291 199.126 L 292.128 197.800 292.064 199.280 M145.620 198.800 C 145.616 198.910,145.871 199.720,146.188 200.600 C 146.505 201.480,146.766 201.840,146.768 201.400 C 146.771 200.735,145.645 198.185,145.620 198.800 M197.678 206.276 C 197.635 210.498,197.735 214.037,197.900 214.139 C 198.065 214.242,198.153 211.957,198.096 209.063 C 197.907 199.495,197.758 198.496,197.678 206.276 M218.054 199.680 C 218.025 200.274,217.685 200.944,217.300 201.168 C 216.915 201.392,216.803 201.581,217.051 201.588 C 217.808 201.608,218.472 200.497,218.285 199.522 C 218.126 198.690,218.104 198.705,218.054 199.680 M220.645 200.650 C 220.290 201.691,220.013 202.735,220.029 202.971 C 220.045 203.207,220.405 202.424,220.828 201.232 C 221.251 200.040,221.528 198.995,221.444 198.910 C 221.359 198.826,221.000 199.608,220.645 200.650 M110.548 204.000 C 110.548 206.310,110.614 207.255,110.695 206.100 C 110.776 204.945,110.776 203.055,110.695 201.900 C 110.614 200.745,110.548 201.690,110.548 204.000 M173.693 210.220 C 173.642 215.951,173.465 220.812,173.300 221.023 C 173.135 221.233,173.228 221.215,173.507 220.982 C 173.898 220.655,173.988 218.181,173.900 210.179 L 173.786 199.800 173.693 210.220 M177.640 201.420 C 177.586 202.530,178.348 203.210,179.580 203.153 C 180.540 203.108,180.530 203.090,179.418 202.852 C 178.612 202.679,178.147 202.281,177.958 201.599 C 177.725 200.761,177.673 200.733,177.640 201.420 M242.893 202.000 C 242.893 202.770,242.975 203.085,243.076 202.700 C 243.176 202.315,243.176 201.685,243.076 201.300 C 242.975 200.915,242.893 201.230,242.893 202.000 M133.379 202.034 C 132.914 202.786,132.692 210.535,133.093 212.000 C 133.382 213.058,133.432 212.473,133.295 209.600 C 133.196 207.510,133.289 204.855,133.503 203.700 C 133.894 201.581,133.869 201.241,133.379 202.034 M277.199 208.919 L 277.398 216.200 277.509 209.230 C 277.570 205.396,277.480 202.120,277.310 201.949 C 277.139 201.778,277.090 204.915,277.199 208.919 M287.467 201.867 C 286.796 202.538,287.183 212.689,287.900 213.232 C 288.496 213.682,288.525 213.678,288.100 213.201 C 287.754 212.812,287.600 211.017,287.600 207.353 C 287.600 203.498,287.735 202.012,288.100 201.865 C 288.379 201.752,288.409 201.649,288.167 201.632 C 287.928 201.614,287.613 201.720,287.467 201.867 M162.000 202.753 L 163.400 203.000 163.612 212.000 L 163.823 221.000 163.912 212.180 C 164.008 202.585,163.959 202.360,161.820 202.453 C 160.609 202.505,160.611 202.507,162.000 202.753 M187.818 203.945 C 187.677 204.387,187.166 204.826,186.681 204.920 L 185.800 205.091 186.686 205.146 C 187.513 205.196,188.734 203.800,188.269 203.336 C 188.161 203.228,187.958 203.502,187.818 203.945 M123.043 204.233 C 122.688 205.157,122.799 209.667,123.200 210.600 C 123.425 211.123,123.553 210.051,123.572 207.500 C 123.600 203.617,123.505 203.029,123.043 204.233 M146.948 207.600 C 146.948 209.910,147.014 210.855,147.095 209.700 C 147.176 208.545,147.176 206.655,147.095 205.500 C 147.014 204.345,146.948 205.290,146.948 207.600 M219.737 207.400 C 219.739 209.160,219.809 209.830,219.893 208.889 C 219.978 207.949,219.977 206.509,219.891 205.689 C 219.805 204.870,219.736 205.640,219.737 207.400 M242.924 207.000 C 242.926 208.320,243.001 208.812,243.090 208.093 C 243.179 207.374,243.177 206.294,243.086 205.693 C 242.995 205.092,242.922 205.680,242.924 207.000 M181.600 205.800 C 180.322 206.530,180.596 206.534,182.600 205.812 C 183.480 205.495,183.840 205.234,183.400 205.232 C 182.960 205.230,182.150 205.486,181.600 205.800 M178.117 207.700 C 176.954 208.972,175.993 210.999,176.041 212.080 C 176.074 212.832,176.135 212.781,176.371 211.800 C 176.745 210.253,177.491 208.830,178.520 207.700 C 178.971 207.205,179.249 206.800,179.139 206.800 C 179.029 206.800,178.569 207.205,178.117 207.700 M229.795 211.207 C 229.499 211.687,231.084 214.400,231.661 214.400 C 231.879 214.400,231.773 214.116,231.426 213.769 C 230.255 212.597,229.861 211.534,230.459 211.155 C 230.822 210.925,230.843 210.810,230.524 210.806 C 230.262 210.803,229.934 210.983,229.795 211.207 M119.265 212.617 C 118.595 214.088,118.723 214.402,119.447 213.065 C 119.786 212.440,119.988 211.854,119.896 211.763 C 119.805 211.671,119.521 212.056,119.265 212.617 M185.300 213.297 C 185.370 214.204,185.613 214.612,186.108 214.656 C 186.558 214.696,186.603 214.652,186.231 214.534 C 185.910 214.433,185.546 213.822,185.423 213.175 C 185.210 212.054,185.205 212.060,185.300 213.297 M146.310 213.800 C 146.170 214.460,145.951 215.360,145.822 215.800 C 145.694 216.240,145.870 215.994,146.214 215.253 C 146.559 214.512,146.778 213.612,146.703 213.253 C 146.623 212.875,146.457 213.106,146.310 213.800 M252.505 213.087 C 253.114 213.179,254.014 213.177,254.505 213.082 C 254.997 212.987,254.500 212.911,253.400 212.914 C 252.300 212.917,251.897 212.995,252.505 213.087 M239.800 213.550 C 240.785 213.760,241.044 214.056,241.247 215.203 C 241.493 216.592,241.495 216.593,241.547 215.380 C 241.612 213.891,240.973 213.185,239.620 213.247 C 238.674 213.291,238.687 213.313,239.800 213.550 M249.036 214.431 C 247.384 216.393,248.185 221.619,250.133 221.594 C 250.449 221.590,250.464 221.493,250.177 221.294 C 248.090 219.845,247.768 216.171,249.569 214.369 C 250.212 213.726,250.588 213.200,250.405 213.200 C 250.221 213.200,249.605 213.754,249.036 214.431 M257.126 214.312 C 257.716 214.924,258.276 215.374,258.368 215.311 C 258.599 215.155,256.735 213.200,256.356 213.200 C 256.188 213.200,256.535 213.701,257.126 214.312 M216.200 213.933 C 217.393 214.203,217.401 214.224,217.634 217.602 L 217.868 221.000 217.834 217.400 L 217.800 213.800 216.400 213.731 C 215.039 213.664,215.033 213.669,216.200 213.933 M289.997 213.882 C 290.765 213.983,291.543 214.275,291.727 214.533 C 291.955 214.851,292.010 214.809,291.900 214.400 C 291.794 214.008,291.193 213.782,290.169 213.749 C 288.666 213.700,288.659 213.706,289.997 213.882 M117.233 216.358 C 116.481 217.371,116.175 217.946,116.552 217.636 C 117.371 216.961,118.947 214.803,118.744 214.635 C 118.665 214.570,117.985 215.345,117.233 216.358 M124.000 215.114 C 124.000 215.772,125.821 218.647,126.484 219.035 C 126.768 219.201,126.705 218.992,126.344 218.569 C 125.983 218.146,125.308 217.083,124.844 216.206 C 124.380 215.329,124.000 214.838,124.000 215.114 M203.701 216.600 C 203.705 217.480,203.787 217.793,203.883 217.295 C 203.979 216.798,203.975 216.078,203.875 215.695 C 203.775 215.313,203.696 215.720,203.701 216.600 M221.212 215.308 C 221.190 215.863,223.076 218.583,224.048 219.397 L 225.000 220.194 224.043 219.111 C 223.517 218.515,222.667 217.346,222.155 216.513 C 221.644 215.681,221.219 215.139,221.212 215.308 M258.509 217.600 C 258.509 218.590,258.587 218.995,258.682 218.500 C 258.778 218.005,258.778 217.195,258.682 216.700 C 258.587 216.205,258.509 216.610,258.509 217.600 M199.664 217.050 C 199.629 217.518,199.505 218.507,199.389 219.250 C 199.196 220.486,199.215 220.517,199.608 219.614 C 199.845 219.072,199.968 218.082,199.883 217.414 C 199.791 216.697,199.702 216.548,199.664 217.050 M176.812 218.294 C 176.805 218.565,177.295 219.294,177.900 219.913 C 178.505 220.532,178.710 220.670,178.355 220.219 C 178.000 219.769,177.510 219.040,177.267 218.600 C 177.023 218.160,176.819 218.022,176.812 218.294 M114.456 219.213 C 113.216 220.246,113.775 220.235,115.091 219.200 C 115.650 218.760,115.949 218.406,115.754 218.413 C 115.559 218.421,114.975 218.781,114.456 219.213 M204.000 218.763 C 204.000 219.128,206.754 221.799,206.898 221.573 C 206.958 221.478,206.331 220.744,205.504 219.941 C 204.677 219.139,204.000 218.609,204.000 218.763 M128.200 220.590 C 129.080 221.132,129.980 221.580,130.200 221.585 C 130.420 221.591,129.880 221.152,129.000 220.610 C 128.120 220.068,127.220 219.620,127.000 219.615 C 126.780 219.609,127.320 220.048,128.200 220.590 M190.727 220.600 C 191.381 221.150,192.038 221.600,192.188 221.600 C 192.339 221.600,191.927 221.150,191.273 220.600 C 190.619 220.050,189.962 219.600,189.812 219.600 C 189.661 219.600,190.073 220.050,190.727 220.600 M188.000 220.600 C 187.726 220.930,187.209 221.214,186.851 221.232 C 186.442 221.251,186.385 221.338,186.696 221.464 C 186.969 221.574,187.668 221.290,188.250 220.832 C 188.832 220.374,189.126 220.000,188.903 220.000 C 188.680 220.000,188.274 220.270,188.000 220.600 M240.828 220.566 C 240.561 220.888,239.950 221.228,239.471 221.322 C 238.691 221.473,238.683 221.495,239.400 221.533 C 240.254 221.577,241.885 220.552,241.528 220.194 C 241.410 220.077,241.095 220.244,240.828 220.566 M279.709 220.800 C 280.269 221.240,280.857 221.600,281.017 221.600 C 281.177 221.600,280.850 221.240,280.291 220.800 C 279.731 220.360,279.143 220.000,278.983 220.000 C 278.823 220.000,279.150 220.360,279.709 220.800 M111.087 220.646 C 110.951 220.782,110.246 221.033,109.520 221.205 C 108.372 221.477,108.333 221.523,109.224 221.559 C 109.786 221.582,110.596 221.336,111.024 221.013 C 111.451 220.690,111.695 220.420,111.567 220.413 C 111.438 220.406,111.222 220.511,111.087 220.646 M198.580 221.179 C 198.371 221.387,197.030 221.623,195.600 221.702 L 193.000 221.846 195.651 221.923 C 197.592 221.979,198.435 221.839,198.800 221.400 C 199.348 220.740,199.185 220.576,198.580 221.179 M133.500 221.893 C 134.435 221.977,135.965 221.977,136.900 221.893 C 137.835 221.809,137.070 221.740,135.200 221.740 C 133.330 221.740,132.565 221.809,133.500 221.893 M182.307 221.890 C 183.026 221.979,184.106 221.977,184.707 221.886 C 185.308 221.795,184.720 221.722,183.400 221.724 C 182.080 221.726,181.588 221.801,182.307 221.890 M209.712 221.895 C 210.764 221.977,212.384 221.976,213.312 221.892 C 214.240 221.808,213.380 221.741,211.400 221.742 C 209.420 221.743,208.660 221.812,209.712 221.895 M231.100 221.893 C 232.035 221.977,233.565 221.977,234.500 221.893 C 235.435 221.809,234.670 221.740,232.800 221.740 C 230.930 221.740,230.165 221.809,231.100 221.893 M252.307 221.890 C 253.026 221.979,254.106 221.977,254.707 221.886 C 255.308 221.795,254.720 221.722,253.400 221.724 C 252.080 221.726,251.588 221.801,252.307 221.890 M283.900 221.893 C 284.835 221.977,286.365 221.977,287.300 221.893 C 288.235 221.809,287.470 221.740,285.600 221.740 C 283.730 221.740,282.965 221.809,283.900 221.893 " stroke="none" fill="#accbe8" fill-rule="evenodd"></path><path id="path4" d="M265.400 184.467 C 262.057 186.316,261.666 189.818,264.541 192.173 C 268.126 195.111,272.800 193.015,272.800 188.470 C 272.800 185.112,268.469 182.769,265.400 184.467 M269.940 185.079 C 273.339 186.660,272.941 191.165,269.296 192.368 C 265.299 193.687,261.510 189.574,263.909 186.520 C 265.484 184.515,267.626 184.003,269.940 185.079 M94.667 185.867 C 94.063 186.470,94.368 220.675,94.981 221.184 C 96.114 222.125,108.938 221.565,111.886 220.447 C 122.330 216.483,124.354 193.831,114.803 187.802 C 111.939 185.994,96.065 184.469,94.667 185.867 M110.095 186.730 C 114.177 187.441,118.400 190.727,118.400 193.192 C 118.400 193.538,118.695 194.244,119.056 194.759 C 120.451 196.750,120.225 208.447,118.714 212.474 C 116.267 218.995,112.682 220.767,101.900 220.787 L 94.800 220.800 94.800 204.033 C 94.800 194.811,94.915 186.965,95.056 186.599 C 95.345 185.844,105.524 185.933,110.095 186.730 M205.100 189.632 C 204.689 189.871,204.400 190.517,204.400 191.194 C 204.400 193.159,203.726 194.400,202.659 194.400 C 200.231 194.400,199.908 200.679,202.300 201.383 L 203.600 201.765 203.629 208.183 C 203.670 217.167,203.920 218.605,205.731 220.264 L 207.188 221.600 211.894 221.594 C 217.839 221.586,217.662 221.712,217.517 217.598 L 217.400 214.265 215.600 213.833 L 213.800 213.400 213.689 207.500 L 213.579 201.600 215.113 201.600 C 217.509 201.600,217.996 201.001,218.272 197.716 C 218.540 194.514,218.590 194.569,215.200 194.308 C 213.821 194.202,213.798 194.170,213.674 192.210 C 213.605 191.116,213.358 189.991,213.125 189.710 C 212.607 189.086,206.146 189.023,205.100 189.632 M278.880 189.680 C 278.616 189.944,278.400 190.831,278.400 191.651 C 278.400 193.245,277.581 194.400,276.451 194.400 C 275.198 194.400,274.800 195.286,274.800 198.075 L 274.800 200.789 276.200 201.374 L 277.600 201.959 277.600 209.108 C 277.600 220.556,278.298 221.600,285.951 221.600 C 291.838 221.600,292.000 221.504,292.000 218.019 C 292.000 214.423,291.811 214.000,290.202 214.000 C 287.465 214.000,287.156 213.282,287.285 207.200 L 287.400 201.800 289.200 201.590 C 291.727 201.294,291.872 201.130,292.187 198.187 C 292.523 195.043,292.147 194.400,289.974 194.400 C 288.119 194.400,287.200 193.324,287.200 191.154 C 287.200 190.184,286.985 189.603,286.567 189.443 C 285.396 188.993,279.381 189.179,278.880 189.680 M212.167 189.843 C 212.620 190.016,212.800 190.620,212.800 191.963 C 212.800 194.173,213.296 194.800,215.047 194.800 C 217.650 194.800,217.980 195.447,217.343 199.300 C 217.125 200.618,216.959 200.800,215.974 200.800 C 215.357 200.800,214.390 200.976,213.826 201.190 L 212.800 201.580 212.800 207.541 C 212.800 214.141,212.809 214.166,215.431 214.709 L 217.000 215.033 217.117 217.895 L 217.234 220.757 215.838 221.019 C 215.070 221.163,212.794 221.218,210.780 221.141 L 207.118 221.000 205.765 219.400 L 204.412 217.800 204.400 210.000 C 204.387 201.601,204.360 201.460,202.683 201.050 C 201.036 200.646,201.141 195.091,202.800 194.862 C 204.305 194.653,204.734 194.118,205.036 192.067 C 205.187 191.040,205.511 190.068,205.756 189.906 C 206.293 189.551,211.279 189.502,212.167 189.843 M286.522 191.863 C 286.792 194.482,287.121 194.786,289.700 194.794 L 291.600 194.800 291.600 197.749 L 291.600 200.698 289.613 200.889 C 286.462 201.192,286.400 201.318,286.400 207.405 C 286.400 213.524,286.727 214.320,289.425 214.756 L 291.000 215.011 291.117 217.884 L 291.234 220.757 289.803 221.026 C 289.016 221.173,286.707 221.221,284.671 221.132 C 278.849 220.878,278.716 220.637,278.419 209.800 L 278.200 201.800 276.909 201.200 C 275.031 200.327,274.865 195.376,276.700 194.974 C 277.305 194.842,278.000 194.674,278.244 194.601 C 278.488 194.528,278.814 193.518,278.968 192.357 C 279.346 189.509,279.214 189.600,282.968 189.600 L 286.288 189.600 286.522 191.863 M131.600 193.445 C 125.421 195.788,123.971 198.089,123.690 206.000 C 123.273 217.702,126.149 221.600,135.199 221.600 C 144.286 221.600,147.054 217.970,146.713 206.502 C 146.492 199.057,145.291 196.490,141.013 194.314 C 139.403 193.496,133.021 192.906,131.600 193.445 M162.460 194.204 C 159.972 195.362,159.477 195.416,158.800 194.600 C 158.058 193.705,150.988 193.734,150.643 194.633 C 150.151 195.915,150.372 220.612,150.880 221.120 C 151.466 221.706,157.494 221.773,158.974 221.210 L 160.000 220.820 160.000 211.853 C 160.000 202.171,159.948 202.400,162.153 202.400 C 163.911 202.400,164.000 202.874,164.000 212.237 C 164.000 219.963,164.082 221.146,164.633 221.357 C 165.819 221.812,172.618 221.622,173.120 221.120 C 174.140 220.100,173.763 198.434,172.690 196.405 C 170.951 193.117,166.741 192.211,162.460 194.204 M183.600 193.598 C 182.830 193.790,181.120 194.184,179.800 194.473 C 177.009 195.086,176.777 195.720,177.704 200.200 L 178.200 202.600 179.866 202.721 C 180.782 202.788,182.557 202.575,183.810 202.248 C 186.262 201.608,187.706 201.858,188.144 202.998 C 188.625 204.253,187.697 205.200,185.988 205.200 C 178.527 205.200,173.826 212.053,177.070 218.200 C 178.751 221.384,184.105 222.881,187.200 221.032 C 189.648 219.570,190.003 219.531,191.268 220.596 C 192.304 221.467,192.847 221.600,195.382 221.600 C 198.656 221.600,198.963 221.399,199.362 219.000 C 199.508 218.120,199.723 216.916,199.840 216.324 C 200.018 215.427,199.849 215.143,198.827 214.614 L 197.600 213.979 197.600 205.883 C 197.600 196.817,197.291 195.718,194.289 194.125 C 192.820 193.345,185.972 193.008,183.600 193.598 M228.000 193.740 C 227.230 194.042,226.128 194.481,225.551 194.716 C 218.140 197.724,218.185 215.178,225.616 220.196 L 227.400 221.400 233.658 221.400 C 241.572 221.400,241.827 221.257,241.439 217.050 C 241.075 213.101,241.515 213.318,236.000 214.371 C 232.844 214.973,231.390 214.601,230.355 212.927 C 229.155 210.986,229.455 210.871,236.081 210.727 C 243.191 210.573,242.819 210.879,242.872 205.165 C 242.932 198.728,241.893 196.344,238.148 194.330 C 236.157 193.259,230.117 192.908,228.000 193.740 M139.671 194.278 C 139.962 194.511,140.634 194.835,141.164 194.998 C 147.281 196.878,148.336 214.140,142.649 219.300 C 142.225 219.685,141.650 220.000,141.372 220.000 C 141.094 220.000,140.792 220.225,140.700 220.500 C 140.398 221.408,130.875 221.177,129.400 220.226 C 125.175 217.502,124.282 215.274,124.261 207.400 C 124.238 199.218,125.465 196.687,130.515 194.495 C 132.766 193.517,138.551 193.380,139.671 194.278 M169.860 194.255 C 172.622 195.566,172.800 196.480,172.800 209.384 L 172.800 220.800 168.600 220.800 L 164.400 220.800 164.400 211.931 C 164.400 201.488,163.962 200.329,160.674 202.060 C 159.246 202.811,159.213 203.042,159.206 212.100 L 159.200 220.800 154.994 220.800 L 150.789 220.800 150.894 207.900 L 151.000 195.000 154.707 194.885 C 157.746 194.791,158.456 194.881,158.650 195.385 C 158.913 196.071,161.007 196.235,161.399 195.601 C 162.438 193.921,167.468 193.120,169.860 194.255 M193.875 194.604 C 196.687 195.940,197.024 197.204,196.876 205.877 C 196.748 213.384,196.932 214.534,198.333 214.979 C 199.034 215.201,198.959 218.678,198.210 220.700 C 197.794 221.823,192.968 221.323,191.461 220.000 C 189.797 218.539,189.817 218.540,188.043 219.892 C 181.567 224.832,174.073 217.274,177.903 209.666 C 178.887 207.710,183.104 205.600,186.029 205.600 C 188.876 205.600,190.042 203.855,188.384 202.075 C 187.402 201.021,185.084 200.904,182.938 201.800 C 179.717 203.146,179.007 202.779,178.262 199.389 C 177.333 195.160,177.257 195.345,180.100 194.872 C 181.475 194.643,183.230 194.273,184.000 194.050 C 186.332 193.375,191.954 193.690,193.875 194.604 M236.146 194.202 C 236.776 194.531,237.530 194.800,237.821 194.800 C 240.162 194.800,242.400 199.756,242.400 204.941 C 242.400 210.372,242.828 210.000,236.583 210.000 C 229.104 210.000,227.650 210.874,230.200 213.838 C 231.268 215.079,237.828 215.532,238.920 214.440 C 239.828 213.532,240.800 215.161,240.800 217.594 C 240.800 220.762,240.273 221.000,233.240 221.000 C 226.688 221.000,224.399 219.861,222.339 215.575 C 218.679 207.958,221.553 194.800,226.878 194.800 C 227.187 194.800,227.611 194.637,227.820 194.439 C 228.823 193.486,234.465 193.326,236.146 194.202 M104.292 194.482 C 103.645 194.956,103.594 195.788,103.692 204.200 L 103.800 213.400 106.005 213.517 C 108.078 213.627,108.294 213.548,109.605 212.195 L 111.000 210.756 111.000 203.878 C 111.000 195.284,110.807 194.861,106.600 194.211 C 105.563 194.051,104.751 194.147,104.292 194.482 M263.700 194.665 C 262.739 195.053,263.003 220.667,263.974 221.186 C 265.066 221.770,271.322 221.718,271.920 221.120 C 272.428 220.612,272.649 196.314,272.157 195.033 C 271.918 194.409,265.072 194.111,263.700 194.665 M108.887 195.500 C 110.097 196.887,110.459 198.108,110.682 201.552 C 111.217 209.809,109.738 213.399,105.916 213.124 L 104.200 213.000 104.092 204.410 C 104.032 199.685,104.072 195.590,104.179 195.310 C 104.489 194.502,108.145 194.649,108.887 195.500 M271.906 207.900 L 272.011 220.800 268.006 220.800 L 264.000 220.800 264.000 208.067 C 264.000 201.063,264.126 195.207,264.281 195.053 C 264.435 194.898,266.190 194.823,268.181 194.886 L 271.800 195.000 271.906 207.900 M134.400 200.783 C 131.235 201.576,131.112 214.308,134.263 214.910 C 137.425 215.514,137.906 214.588,137.954 207.800 C 137.998 201.582,137.234 200.074,134.400 200.783 M230.414 201.311 C 229.186 201.932,228.463 204.112,229.193 204.992 C 230.095 206.079,234.726 205.834,235.015 204.684 C 235.684 202.016,232.963 200.021,230.414 201.311 M136.426 201.614 C 137.900 202.403,137.507 214.188,136.000 214.407 C 133.287 214.802,132.548 212.854,132.912 206.257 C 133.177 201.451,134.026 200.329,136.426 201.614 M233.669 202.262 C 234.071 202.626,234.400 203.445,234.400 204.082 C 234.400 205.708,229.898 205.694,229.668 204.067 C 229.381 202.045,232.082 200.826,233.669 202.262 M186.508 210.273 C 183.876 210.806,183.576 214.324,186.073 215.374 C 188.186 216.262,189.675 214.895,189.518 212.212 C 189.392 210.065,188.949 209.779,186.508 210.273 M188.800 212.351 C 188.800 214.169,188.092 214.909,186.524 214.729 C 184.163 214.458,184.991 210.800,187.414 210.800 C 188.757 210.800,188.800 210.848,188.800 212.351 M249.569 214.369 C 247.768 216.171,248.090 219.845,250.177 221.294 C 251.390 222.137,256.426 221.614,257.419 220.542 C 260.287 217.447,257.961 213.200,253.400 213.200 C 250.992 213.200,250.627 213.311,249.569 214.369 M256.381 214.304 C 258.161 215.746,257.799 220.438,255.867 220.956 C 252.717 221.801,250.114 221.075,249.551 219.193 C 248.246 214.840,252.916 211.498,256.381 214.304 " stroke="none" fill="#80acdc" fill-rule="evenodd"></path></g></svg>